<?xml version="1.0" standalone="no"?>
<!DOCTYPE svg PUBLIC "-//W3C//DTD SVG 20010904//EN"
 "http://www.w3.org/TR/2001/REC-SVG-20010904/DTD/svg10.dtd">
<svg version="1.0" xmlns="http://www.w3.org/2000/svg"
 width="400.000000pt" height="400.000000pt" viewBox="0 0 400.000000 400.000000"
 preserveAspectRatio="xMidYMid meet">
<metadata>
Created by potrace 1.14, written by Peter Selinger 2001-2017
</metadata>
<g transform="translate(0.000000,400.000000) scale(0.100000,-0.100000)"
fill="#000000" stroke="none">
<path d="M1220 3051 c-163 -36 -291 -104 -390 -206 l-45 -46 -5 123 -5 123
-265 1 c-146 1 -270 -1 -276 -3 -8 -3 -10 -312 -10 -1071 l1 -1067 275 0 275
0 3 644 c2 524 5 656 17 708 52 222 229 347 484 338 221 -8 367 -122 422 -331
20 -76 21 -104 21 -717 l-1 -637 272 2 272 3 1 640 c0 693 1 702 57 814 89
178 306 264 545 215 120 -25 233 -111 285 -217 55 -115 57 -141 57 -826 l0
-631 270 0 270 0 -1 673 c0 369 -5 697 -9 727 -18 116 -22 137 -46 210 -39
116 -99 215 -185 300 -104 104 -150 135 -270 183 -216 86 -514 83 -715 -9
-137 -62 -268 -168 -344 -278 l-32 -48 -36 54 c-106 158 -290 279 -491 324
-109 25 -301 27 -401 5z"/>
</g>
</svg>
