<?xml version="1.0" standalone="no"?>
<!DOCTYPE svg PUBLIC "-//W3C//DTD SVG 20010904//EN"
 "http://www.w3.org/TR/2001/REC-SVG-20010904/DTD/svg10.dtd">
<svg version="1.0" xmlns="http://www.w3.org/2000/svg"
 width="400.000000pt" height="400.000000pt" viewBox="0 0 400.000000 400.000000"
 preserveAspectRatio="xMidYMid meet">
<metadata>
Created by potrace 1.14, written by Peter Selinger 2001-2017
</metadata>
<g transform="translate(0.000000,400.000000) scale(0.100000,-0.100000)"
fill="#000000" stroke="none">
<path d="M1288 3175 c-2 -2 -30 -5 -63 -8 -95 -9 -260 -57 -277 -81 -4 -6 -8
-8 -8 -4 0 7 -109 -53 -139 -76 -7 -6 -35 -32 -63 -58 -27 -26 -56 -52 -63
-58 -11 -9 -14 9 -14 114 0 69 -2 130 -6 136 -7 12 -604 14 -606 3 -1 -5 -3
-536 -3 -1181 -1 -805 1 -1175 9 -1180 14 -9 596 -9 601 0 3 5 5 332 5 728 -1
396 3 720 7 720 5 0 9 6 9 13 2 49 46 165 73 195 11 12 20 24 20 28 0 9 81 84
90 84 4 0 20 11 36 25 15 13 30 22 33 20 2 -3 9 -1 15 4 71 56 381 59 468 5 7
-5 19 -9 26 -10 20 -3 83 -53 129 -102 41 -43 97 -144 107 -193 3 -13 10 -42
15 -64 6 -25 10 -306 10 -730 -1 -802 -2 -738 12 -729 14 9 174 9 188 0 6 -4
11 -3 11 3 0 10 19 9 38 -2 6 -5 12 -5 12 0 0 10 52 9 68 -1 7 -4 12 -4 12 1
0 10 52 9 68 -1 7 -4 12 -4 12 1 0 10 52 9 68 -1 7 -4 12 -4 12 1 0 4 24 8 53
8 l52 0 1 680 c1 704 4 777 30 848 31 82 47 117 56 117 4 0 8 7 8 15 0 8 4 15
8 15 5 0 15 11 22 25 7 14 17 25 21 25 4 0 21 13 39 30 70 65 185 102 329 105
162 2 281 -41 383 -141 42 -41 103 -148 112 -196 3 -13 5 -23 6 -23 1 0 4 -13
6 -30 3 -16 9 -42 14 -57 6 -18 5 -28 -1 -28 -6 0 -7 -6 -3 -12 5 -7 8 -319 9
-693 l0 -680 66 -1 c36 0 73 -4 82 -7 10 -4 17 -3 17 1 0 8 202 7 224 -1 9 -4
16 -3 16 1 0 4 44 6 98 5 l99 -2 -2 762 c-1 419 -3 762 -4 762 -2 0 -5 20 -7
45 -2 25 -8 63 -14 85 -6 22 -12 49 -14 60 -10 56 -19 85 -28 85 -5 0 -7 4 -4
8 7 11 -55 141 -93 195 -49 70 -111 137 -170 186 -74 61 -206 133 -261 143 -3
1 -19 7 -35 14 -85 35 -329 56 -465 40 -60 -8 -177 -36 -217 -53 -18 -7 -36
-13 -39 -12 -4 0 -10 -3 -13 -8 -3 -4 -37 -24 -75 -43 -38 -19 -78 -45 -90
-57 -11 -13 -26 -23 -32 -23 -6 0 -42 -33 -80 -73 -79 -85 -94 -102 -113 -139
l-14 -27 -47 67 c-137 194 -308 301 -570 358 -57 12 -263 27 -272 19z"/>
</g>
</svg>
